<mxfile host="app.diagrams.net" modified="2023-09-25T10:01:23.919Z" agent="Mozilla/5.0 (Windows NT 10.0; Win64; x64) AppleWebKit/537.36 (KHTML, like Gecko) Chrome/116.0.0.0 Safari/537.36" etag="AXkD3bM_uNW6iFnc-8kB" version="21.8.1" type="github">
  <diagram name="Page-1" id="5d7acffa-a066-3a61-03fe-96351882024d">
    <mxGraphModel dx="1173" dy="584" grid="1" gridSize="10" guides="1" tooltips="1" connect="1" arrows="1" fold="1" page="1" pageScale="1" pageWidth="1100" pageHeight="850" background="#ffffff" math="0" shadow="0">
      <root>
        <mxCell id="0" />
        <mxCell id="1" parent="0" />
        <mxCell id="iur3utxpEIfSdaShC565-2" value="CUSTOMER" style="html=1;dashed=0;whiteSpace=wrap;shape=mxgraph.dfd.externalEntity" parent="1" vertex="1">
          <mxGeometry x="290" y="50" width="160" height="70" as="geometry" />
        </mxCell>
        <mxCell id="iur3utxpEIfSdaShC565-6" value="4.2" style="swimlane;fontStyle=0;childLayout=stackLayout;horizontal=1;startSize=20;fillColor=#ffffff;horizontalStack=0;resizeParent=1;resizeParentMax=0;resizeLast=0;collapsible=0;marginBottom=0;swimlaneFillColor=#ffffff;" parent="1" vertex="1">
          <mxGeometry x="720" y="210" width="130" height="130" as="geometry" />
        </mxCell>
        <mxCell id="iur3utxpEIfSdaShC565-7" value="Generate Notice and Age Query" style="text;html=1;strokeColor=none;fillColor=none;align=center;verticalAlign=middle;whiteSpace=wrap;rounded=0;" parent="iur3utxpEIfSdaShC565-6" vertex="1">
          <mxGeometry y="20" width="130" height="110" as="geometry" />
        </mxCell>
        <mxCell id="iur3utxpEIfSdaShC565-8" value="4.1" style="swimlane;fontStyle=0;childLayout=stackLayout;horizontal=1;startSize=20;fillColor=#ffffff;horizontalStack=0;resizeParent=1;resizeParentMax=0;resizeLast=0;collapsible=0;marginBottom=0;swimlaneFillColor=#ffffff;" parent="1" vertex="1">
          <mxGeometry x="440" y="210" width="130" height="130" as="geometry" />
        </mxCell>
        <mxCell id="iur3utxpEIfSdaShC565-9" value="Age Check Trigger" style="text;html=1;strokeColor=none;fillColor=none;align=center;verticalAlign=middle;whiteSpace=wrap;rounded=0;" parent="iur3utxpEIfSdaShC565-8" vertex="1">
          <mxGeometry y="20" width="130" height="110" as="geometry" />
        </mxCell>
        <mxCell id="iur3utxpEIfSdaShC565-10" value="3" style="swimlane;fontStyle=0;childLayout=stackLayout;horizontal=1;startSize=20;fillColor=#ffffff;horizontalStack=0;resizeParent=1;resizeParentMax=0;resizeLast=0;collapsible=0;marginBottom=0;swimlaneFillColor=#ffffff;" parent="1" vertex="1">
          <mxGeometry x="150" y="210" width="130" height="130" as="geometry" />
        </mxCell>
        <mxCell id="iur3utxpEIfSdaShC565-11" value="Select Event" style="text;html=1;strokeColor=none;fillColor=none;align=center;verticalAlign=middle;whiteSpace=wrap;rounded=0;" parent="iur3utxpEIfSdaShC565-10" vertex="1">
          <mxGeometry y="20" width="130" height="110" as="geometry" />
        </mxCell>
        <mxCell id="iur3utxpEIfSdaShC565-1" value="D4" style="html=1;dashed=0;whiteSpace=wrap;shape=mxgraph.dfd.dataStoreID;align=left;spacingLeft=3;points=[[0,0],[0.5,0],[1,0],[0,0.5],[1,0.5],[0,1],[0.5,1],[1,1]];" parent="1" vertex="1">
          <mxGeometry x="400" y="450" width="250.00000000000003" height="30" as="geometry" />
        </mxCell>
        <mxCell id="iur3utxpEIfSdaShC565-14" value="Age Verification Records" style="text;html=1;strokeColor=none;fillColor=none;align=center;verticalAlign=middle;whiteSpace=wrap;rounded=0;" parent="1" vertex="1">
          <mxGeometry x="460" y="450" width="151.88" height="30" as="geometry" />
        </mxCell>
        <mxCell id="1QCgXsQSsQ5etP48Paoi-7" value="" style="endArrow=classic;html=1;rounded=0;exitX=1;exitY=0.5;exitDx=0;exitDy=0;entryX=0;entryY=0.5;entryDx=0;entryDy=0;" edge="1" parent="1" source="iur3utxpEIfSdaShC565-11" target="iur3utxpEIfSdaShC565-9">
          <mxGeometry width="50" height="50" relative="1" as="geometry">
            <mxPoint x="320" y="300" as="sourcePoint" />
            <mxPoint x="370" y="250" as="targetPoint" />
          </mxGeometry>
        </mxCell>
        <mxCell id="1QCgXsQSsQ5etP48Paoi-8" value="Event Detail" style="edgeLabel;html=1;align=center;verticalAlign=middle;resizable=0;points=[];" vertex="1" connectable="0" parent="1QCgXsQSsQ5etP48Paoi-7">
          <mxGeometry x="-0.0019" y="-4" relative="1" as="geometry">
            <mxPoint y="-3" as="offset" />
          </mxGeometry>
        </mxCell>
        <mxCell id="1QCgXsQSsQ5etP48Paoi-9" value="" style="endArrow=classic;html=1;rounded=0;exitX=1;exitY=0.5;exitDx=0;exitDy=0;entryX=0;entryY=0.5;entryDx=0;entryDy=0;" edge="1" parent="1" source="iur3utxpEIfSdaShC565-9" target="iur3utxpEIfSdaShC565-7">
          <mxGeometry width="50" height="50" relative="1" as="geometry">
            <mxPoint x="630" y="310" as="sourcePoint" />
            <mxPoint x="680" y="260" as="targetPoint" />
          </mxGeometry>
        </mxCell>
        <mxCell id="1QCgXsQSsQ5etP48Paoi-10" value="Event Detail&lt;br&gt;Confirmation" style="edgeLabel;html=1;align=center;verticalAlign=middle;resizable=0;points=[];" vertex="1" connectable="0" parent="1QCgXsQSsQ5etP48Paoi-9">
          <mxGeometry x="-0.0193" y="1" relative="1" as="geometry">
            <mxPoint y="2" as="offset" />
          </mxGeometry>
        </mxCell>
        <mxCell id="1QCgXsQSsQ5etP48Paoi-11" value="" style="endArrow=classic;html=1;rounded=0;exitX=0;exitY=0;exitDx=160;exitDy=40;exitPerimeter=0;entryX=1;entryY=0.5;entryDx=0;entryDy=0;" edge="1" parent="1" source="iur3utxpEIfSdaShC565-2" target="iur3utxpEIfSdaShC565-1">
          <mxGeometry width="50" height="50" relative="1" as="geometry">
            <mxPoint x="530" y="120" as="sourcePoint" />
            <mxPoint x="580" y="70" as="targetPoint" />
            <Array as="points">
              <mxPoint x="960" y="90" />
              <mxPoint x="960" y="465" />
            </Array>
          </mxGeometry>
        </mxCell>
        <mxCell id="1QCgXsQSsQ5etP48Paoi-12" value="Age Confirmation" style="edgeLabel;html=1;align=center;verticalAlign=middle;resizable=0;points=[];" vertex="1" connectable="0" parent="1QCgXsQSsQ5etP48Paoi-11">
          <mxGeometry x="-0.2762" y="1" relative="1" as="geometry">
            <mxPoint x="-182" as="offset" />
          </mxGeometry>
        </mxCell>
        <mxCell id="1QCgXsQSsQ5etP48Paoi-13" value="" style="endArrow=classic;html=1;rounded=0;exitX=0;exitY=0.5;exitDx=0;exitDy=0;entryX=0.5;entryY=1;entryDx=0;entryDy=0;" edge="1" parent="1" source="iur3utxpEIfSdaShC565-1" target="iur3utxpEIfSdaShC565-11">
          <mxGeometry width="50" height="50" relative="1" as="geometry">
            <mxPoint x="220" y="470" as="sourcePoint" />
            <mxPoint x="270" y="420" as="targetPoint" />
            <Array as="points">
              <mxPoint x="215" y="465" />
            </Array>
          </mxGeometry>
        </mxCell>
        <mxCell id="1QCgXsQSsQ5etP48Paoi-14" value="Age Validation" style="edgeLabel;html=1;align=center;verticalAlign=middle;resizable=0;points=[];" vertex="1" connectable="0" parent="1QCgXsQSsQ5etP48Paoi-13">
          <mxGeometry x="-0.4208" y="1" relative="1" as="geometry">
            <mxPoint as="offset" />
          </mxGeometry>
        </mxCell>
        <mxCell id="1QCgXsQSsQ5etP48Paoi-15" value="" style="endArrow=classic;html=1;rounded=0;entryX=0;entryY=0;entryDx=85;entryDy=70;entryPerimeter=0;exitX=0.5;exitY=0;exitDx=0;exitDy=0;" edge="1" parent="1" source="iur3utxpEIfSdaShC565-6" target="iur3utxpEIfSdaShC565-2">
          <mxGeometry width="50" height="50" relative="1" as="geometry">
            <mxPoint x="510" y="190" as="sourcePoint" />
            <mxPoint x="560" y="140" as="targetPoint" />
            <Array as="points">
              <mxPoint x="785" y="140" />
              <mxPoint x="375" y="140" />
            </Array>
          </mxGeometry>
        </mxCell>
        <mxCell id="1QCgXsQSsQ5etP48Paoi-16" value="Age Query (Notice of Event Age Restriction)" style="edgeLabel;html=1;align=center;verticalAlign=middle;resizable=0;points=[];" vertex="1" connectable="0" parent="1QCgXsQSsQ5etP48Paoi-15">
          <mxGeometry x="0.1307" relative="1" as="geometry">
            <mxPoint as="offset" />
          </mxGeometry>
        </mxCell>
      </root>
    </mxGraphModel>
  </diagram>
</mxfile>
